<?xml version="1.0" encoding="UTF-8" standalone="no"?>
<!-- Created with Inkscape (http://www.inkscape.org/) -->

<svg
   xmlns:dc="http://purl.org/dc/elements/1.1/"
   xmlns:cc="http://creativecommons.org/ns#"
   xmlns:rdf="http://www.w3.org/1999/02/22-rdf-syntax-ns#"
   xmlns:svg="http://www.w3.org/2000/svg"
   xmlns="http://www.w3.org/2000/svg"
   xmlns:sodipodi="http://sodipodi.sourceforge.net/DTD/sodipodi-0.dtd"
   xmlns:inkscape="http://www.inkscape.org/namespaces/inkscape"
   width="84.853912mm"
   height="18.056293mm"
   viewBox="0 0 84.853912 18.056293"
   version="1.1"
   id="svg6030"
   inkscape:version="0.92.5 (2060ec1f9f, 2020-04-08)"
   sodipodi:docname="logo_fondo_claro.svg">
  <defs
     id="defs6024" />
  <sodipodi:namedview
     id="base"
     pagecolor="#ffffff"
     bordercolor="#666666"
     borderopacity="1.0"
     inkscape:pageopacity="0.0"
     inkscape:pageshadow="2"
     inkscape:zoom="0.35"
     inkscape:cx="-323.93187"
     inkscape:cy="14.122117"
     inkscape:document-units="mm"
     inkscape:current-layer="layer1"
     showgrid="false"
     inkscape:window-width="3368"
     inkscape:window-height="1376"
     inkscape:window-x="72"
     inkscape:window-y="27"
     inkscape:window-maximized="1" />
  <metadata
     id="metadata6027">
    <rdf:RDF>
      <cc:Work
         rdf:about="">
        <dc:format>image/svg+xml</dc:format>
        <dc:type
           rdf:resource="http://purl.org/dc/dcmitype/StillImage" />
        <dc:title></dc:title>
      </cc:Work>
    </rdf:RDF>
  </metadata>
  <g
     inkscape:label="Layer 1"
     inkscape:groupmode="layer"
     id="layer1"
     transform="translate(-54.334951,-134.51352)">
    <g
       id="g4488"
       transform="matrix(0.35277777,0,0,-0.35277777,59.235034,152.56981)">
      <path
         d="m 0,0 c -5.036,0 -8.645,1.132 -10.726,3.364 -2.1,2.251 -3.164,5.835 -3.164,10.656 v 4.204 h 9.578 v -3.781 c 0,-4.854 1.956,-5.873 3.597,-5.873 1.113,0 2.044,0.457 2.692,1.322 0.601,0.801 0.904,1.84 0.904,3.088 0,1.49 -0.211,2.779 -0.629,3.83 -0.416,1.044 -1.05,2.044 -1.884,2.973 -0.8,0.891 -2.065,2.079 -3.865,3.636 l -4.842,4.192 c -3.685,3.173 -5.551,6.779 -5.551,10.722 0,4.326 1.095,7.566 3.257,9.628 2.174,2.074 5.238,3.125 9.105,3.125 h 2.015 c 0.976,0 2.272,-0.234 3.852,-0.697 1.54,-0.451 2.928,-1.21 4.126,-2.258 1.174,-1.027 2.073,-2.494 2.671,-4.359 0.555,-1.731 0.866,-3.846 0.924,-6.295 H 2.182 l -0.048,2.272 c -0.031,0.83 -0.373,1.554 -1.016,2.168 -0.642,0.613 -1.379,0.923 -2.191,0.923 -0.972,0 -1.815,-0.308 -2.506,-0.915 -0.713,-0.626 -1.09,-1.475 -1.09,-2.454 0,-1.767 1.157,-3.561 3.538,-5.485 l 6.925,-5.591 c 1.086,-0.877 2.04,-1.779 2.836,-2.679 0.785,-0.886 1.413,-1.769 1.866,-2.627 0.472,-0.891 0.859,-1.706 1.149,-2.422 0.275,-0.676 0.469,-1.426 0.578,-2.229 0.115,-0.846 0.185,-1.488 0.205,-1.909 0.021,-0.433 0.032,-0.998 0.032,-1.697 0,-1.766 -0.116,-3.387 -0.347,-4.818 C 11.887,8.608 11.482,7.236 10.908,5.934 10.352,4.673 9.616,3.609 8.721,2.773 7.829,1.94 6.642,1.264 5.194,0.765 3.722,0.257 1.973,0 0,0"
         style="fill:#2c2a2a;fill-opacity:1;fill-rule:nonzero;stroke:none"
         id="path4490"
         inkscape:connector-curvature="0" />
    </g>
    <g
       id="g4492"
       transform="matrix(0.35277777,0,0,-0.35277777,77.153424,152.36354)">
      <path
         d="M 0,0 V 50.046 H 9.708 V 8.376 H 21.475 V 0 Z"
         style="fill:#2c2a2a;fill-opacity:1;fill-rule:nonzero;stroke:none"
         id="path4494"
         inkscape:connector-curvature="0" />
    </g>
    <g
       id="g4496"
       transform="matrix(0.35277777,0,0,-0.35277777,71.672704,148.35193)">
      <path
         d="m 0,0 c 0,-2.177 -1.781,-3.958 -3.958,-3.958 -2.177,0 -3.959,1.781 -3.959,3.958 v 27.361 c 0,2.177 1.782,3.958 3.959,3.958 2.177,0 3.958,-1.781 3.958,-3.958 z m 6.035,35.83 c -2.152,2.193 -5.551,3.335 -10.079,3.397 -4.422,-0.062 -7.756,-1.204 -9.909,-3.397 -2.153,-2.194 -3.246,-5.363 -3.246,-9.42 V 1.739 c 0,-2.008 0.255,-3.852 0.758,-5.482 0.495,-1.609 1.259,-3.059 2.268,-4.311 0.983,-1.22 2.346,-2.181 4.051,-2.859 1.591,-0.633 3.492,-0.954 5.65,-0.954 0.194,0 0.39,0.003 0.635,0.008 0.187,-0.005 0.373,-0.008 0.556,-0.008 2.049,0 3.895,0.321 5.487,0.955 1.703,0.676 3.066,1.638 4.05,2.858 1.009,1.252 1.772,2.702 2.268,4.31 0.503,1.633 0.758,3.478 0.758,5.483 V 26.41 c 0,4.056 -1.092,7.226 -3.247,9.42"
         style="fill:#2c2a2a;fill-opacity:1;fill-rule:nonzero;stroke:none"
         id="path4498"
         inkscape:connector-curvature="0" />
    </g>
    <g
       id="g4500"
       transform="matrix(0.35277777,0,0,-0.35277777,92.256724,148.35193)">
      <path
         d="m 0,0 c 0,-2.177 -1.781,-3.958 -3.958,-3.958 -2.177,0 -3.959,1.781 -3.959,3.958 v 27.361 c 0,2.177 1.782,3.958 3.959,3.958 2.177,0 3.958,-1.781 3.958,-3.958 z m 6.035,35.83 c -2.152,2.193 -5.551,3.335 -10.079,3.397 -4.422,-0.062 -7.756,-1.204 -9.909,-3.397 -2.153,-2.194 -3.246,-5.363 -3.246,-9.42 V 1.739 c 0,-2.008 0.255,-3.852 0.758,-5.482 0.495,-1.609 1.259,-3.059 2.268,-4.311 0.983,-1.22 2.346,-2.181 4.051,-2.859 1.591,-0.633 3.492,-0.954 5.65,-0.954 0.194,0 0.39,0.003 0.635,0.008 0.187,-0.005 0.373,-0.008 0.556,-0.008 2.049,0 3.895,0.321 5.487,0.955 1.703,0.676 3.066,1.638 4.05,2.858 1.009,1.252 1.772,2.702 2.268,4.31 0.503,1.633 0.758,3.478 0.758,5.483 V 26.41 c 0,4.056 -1.092,7.226 -3.247,9.42"
         style="fill:#2c2a2a;fill-opacity:1;fill-rule:nonzero;stroke:none"
         id="path4502"
         inkscape:connector-curvature="0" />
    </g>
    <g
       id="g4504"
       transform="matrix(0.35277777,0,0,-0.35277777,99.410204,152.36354)">
      <path
         d="m 0,0 v 41.801 h -6.793 v 8.245 H 16.502 V 41.801 H 9.708 V 0 Z"
         style="fill:#cd5029;fill-opacity:1;fill-rule:nonzero;stroke:none"
         id="path4506"
         inkscape:connector-curvature="0" />
    </g>
    <g
       id="g4508"
       transform="matrix(0.35277777,0,0,-0.35277777,122.62284,137.33023)">
      <path
         d="m 0,0 c -0.25,0 -0.694,0.046 -1.329,0 h -0.805 v -35.009 c 0,0 1.603,0.019 1.937,0 0.376,-0.024 0.681,0 0.912,0 3.61,0 4.149,2.361 4.149,3.717 v 25.549 c 0,2.116 -0.36,3.57 -1.098,4.443 C 2.998,-0.395 1.731,0 0,0 M -11.908,-42.614 V 7.432 H 2.99 c 3.993,0 6.92,-1.003 8.701,-2.98 1.805,-2.005 2.732,-4.825 2.752,-8.38 l 0.129,-24.182 c 0,-4.95 -0.958,-8.661 -2.849,-11.027 -1.844,-2.307 -4.914,-3.477 -9.123,-3.477 z"
         style="fill:#cd5029;fill-opacity:1;fill-rule:nonzero;stroke:none"
         id="path4510"
         inkscape:connector-curvature="0" />
    </g>
    <g
       id="g4512"
       transform="matrix(0.35277777,0,0,-0.35277777,112.78207,148.35193)">
      <path
         d="m 0,0 c 0,-2.177 -1.781,-3.958 -3.958,-3.958 -2.177,0 -3.959,1.781 -3.959,3.958 v 27.361 c 0,2.177 1.782,3.958 3.959,3.958 2.177,0 3.958,-1.781 3.958,-3.958 z m 6.035,35.83 c -2.152,2.193 -5.551,3.335 -10.079,3.397 -4.422,-0.062 -7.756,-1.204 -9.909,-3.397 -2.153,-2.194 -3.246,-5.363 -3.246,-9.42 V 1.739 c 0,-2.008 0.255,-3.852 0.758,-5.482 0.495,-1.609 1.259,-3.059 2.268,-4.311 0.983,-1.22 2.346,-2.181 4.051,-2.859 1.591,-0.633 3.492,-0.954 5.65,-0.954 0.194,0 0.39,0.003 0.635,0.008 0.187,-0.005 0.373,-0.008 0.556,-0.008 2.049,0 3.895,0.321 5.487,0.955 1.703,0.676 3.066,1.638 4.05,2.858 1.009,1.252 1.772,2.702 2.268,4.31 0.503,1.633 0.758,3.478 0.758,5.483 V 26.41 c 0,4.056 -1.092,7.226 -3.247,9.42"
         style="fill:#cd5029;fill-opacity:1;fill-rule:nonzero;stroke:none"
         id="path4514"
         inkscape:connector-curvature="0" />
    </g>
    <g
       id="g4516"
       transform="matrix(0.35277777,0,0,-0.35277777,135.91438,148.35193)">
      <path
         d="m 0,0 c 0,-2.177 -1.781,-3.958 -3.958,-3.958 -2.177,0 -3.959,1.781 -3.959,3.958 v 27.361 c 0,2.177 1.782,3.958 3.959,3.958 2.177,0 3.958,-1.781 3.958,-3.958 z m 6.035,35.83 c -2.152,2.193 -5.551,3.335 -10.079,3.397 -4.422,-0.062 -7.756,-1.204 -9.909,-3.397 -2.153,-2.194 -3.246,-5.363 -3.246,-9.42 V 1.739 c 0,-2.008 0.255,-3.852 0.758,-5.482 0.495,-1.609 1.259,-3.059 2.268,-4.311 0.983,-1.22 2.346,-2.181 4.051,-2.859 1.591,-0.633 3.492,-0.954 5.65,-0.954 0.194,0 0.39,0.003 0.635,0.008 0.187,-0.005 0.373,-0.008 0.556,-0.008 2.049,0 3.895,0.321 5.487,0.955 1.703,0.676 3.066,1.638 4.05,2.858 1.009,1.252 1.772,2.702 2.268,4.31 0.503,1.633 0.758,3.478 0.758,5.483 V 26.41 c 0,4.056 -1.092,7.226 -3.247,9.42"
         style="fill:#cd5029;fill-opacity:1;fill-rule:nonzero;stroke:none"
         id="path4518"
         inkscape:connector-curvature="0" />
    </g>
  </g>
</svg>
